<svg width="1071" height="661" viewBox="0 0 1071 661" fill="none" xmlns="http://www.w3.org/2000/svg">
<path d="M4 4V0H0V4H4ZM4 433.5H0V437.5H4V433.5ZM484.172 628.172C482.609 629.734 482.609 632.266 484.172 633.828L509.627 659.284C511.19 660.846 513.722 660.846 515.284 659.284C516.846 657.722 516.846 655.19 515.284 653.627L492.657 631L515.284 608.373C516.846 606.81 516.846 604.278 515.284 602.716C513.722 601.154 511.19 601.154 509.627 602.716L484.172 628.172ZM672.25 433.5V437.5H676.25V433.5H672.25ZM672.25 134V130H668.25V134H672.25ZM1067 134H1071V130H1067V134ZM1067 631V635H1071V631H1067ZM886 0H4V8H886V0ZM0 4V433.5H8V4H0ZM4 437.5H68.5V429.5H4V437.5ZM68.5 437.5H672.25V429.5H68.5V437.5ZM676.25 433.5V134H668.25V433.5H676.25ZM672.25 138H1067V130H672.25V138ZM1063 134V631H1071V134H1063ZM1067 627H487V635H1067V627Z" fill="#3B3F64"/>
</svg>
